<?xml version="1.0" standalone="no"?>
<!DOCTYPE svg PUBLIC "-//W3C//DTD SVG 20010904//EN"
 "http://www.w3.org/TR/2001/REC-SVG-20010904/DTD/svg10.dtd">
<svg version="1.0" xmlns="http://www.w3.org/2000/svg"
 width="500.000000pt" height="500.000000pt" viewBox="0 0 500.000000 500.000000"
 preserveAspectRatio="xMidYMid meet">
<metadata>
Created by potrace 1.14, written by Peter Selinger 2001-2017
</metadata>
<g transform="translate(0.000000,500.000000) scale(0.100000,-0.100000)"
fill="#000000" stroke="none">
<path d="M2056 4507 c-4 -17 -17 -27 -46 -36 -23 -7 -43 -18 -46 -25 -10 -27
-50 -3 -45 27 0 4 -4 7 -9 7 -6 0 -8 -11 -4 -25 4 -17 1 -27 -9 -31 -9 -3 -13
-13 -10 -25 3 -10 0 -19 -6 -19 -16 0 -13 39 4 57 14 14 14 17 -2 33 -26 25
-35 11 -36 -60 -2 -57 -3 -61 -23 -57 -26 5 -28 -20 -2 -29 21 -6 25 -34 4
-34 -9 0 -12 -8 -8 -25 5 -31 -6 -31 -54 -3 -31 18 -34 23 -19 28 17 6 17 7
-3 12 -14 4 -22 2 -22 -7 0 -11 -9 -10 -47 1 -34 10 -49 11 -54 3 -4 -6 -16
-8 -28 -4 -14 4 -34 -1 -59 -16 -44 -27 -52 -37 -45 -56 4 -10 9 -11 19 -2 11
9 17 9 28 0 7 -6 22 -8 31 -4 14 5 17 3 12 -9 -4 -12 4 -17 33 -22 76 -12 114
-44 57 -47 -17 -1 -18 -2 -4 -6 22 -6 22 -16 -3 -38 -11 -10 -17 -22 -14 -26
6 -10 -15 -13 -56 -10 l-25 1 23 -20 24 -20 -27 -10 c-59 -23 -90 -2 -101 68
-5 32 -11 42 -25 42 -11 0 -19 -7 -19 -17 -1 -14 -4 -12 -15 7 -14 24 -14 24
-15 4 0 -12 9 -41 20 -65 24 -54 26 -131 5 -149 -9 -7 -14 -19 -11 -26 5 -13
-33 -54 -51 -54 -6 0 -13 -9 -16 -19 -3 -11 -31 -33 -66 -50 -66 -34 -95 -72
-93 -125 1 -43 -15 -66 -46 -66 -23 -1 -25 -2 -11 -13 12 -10 13 -19 5 -48 -6
-20 -17 -43 -23 -51 -7 -8 -11 -17 -9 -19 2 -2 7 -30 10 -61 6 -48 3 -66 -19
-118 -47 -112 -43 -334 6 -360 9 -6 32 -36 50 -67 18 -32 44 -67 56 -79 13
-12 23 -28 23 -37 0 -9 4 -18 9 -21 9 -6 22 -56 14 -56 -2 0 -26 11 -53 25
-59 30 -103 32 -130 5 -27 -27 -34 -63 -21 -115 6 -24 11 -62 11 -85 0 -40 31
-130 55 -160 12 -15 37 -88 49 -142 4 -16 20 -35 43 -49 21 -12 40 -24 42 -26
3 -2 -7 -16 -21 -31 -38 -41 -41 -58 -11 -82 27 -21 78 -27 88 -10 11 18 2
319 -10 340 -7 11 31 521 40 550 4 12 13 16 30 13 29 -6 40 -43 25 -93 -11
-39 -13 -129 -4 -155 10 -24 54 -43 100 -42 23 0 61 -9 87 -21 26 -12 71 -27
100 -34 67 -15 238 -15 352 0 50 7 112 14 140 17 58 6 76 21 100 78 9 23 22
53 28 67 6 14 11 29 11 33 1 12 46 57 57 57 5 0 9 7 9 15 0 17 59 21 75 6 6
-5 21 -11 35 -13 18 -2 26 -11 33 -38 26 -109 27 -111 57 -116 18 -4 30 -14
34 -28 4 -18 17 -24 73 -34 135 -26 180 -14 210 56 13 33 27 40 38 22 4 -6 10
-8 15 -5 12 7 22 -28 14 -49 -4 -12 -1 -16 14 -16 12 0 23 4 27 9 3 6 18 6 38
0 17 -5 42 -9 54 -9 32 0 39 48 15 103 -24 53 -73 77 -172 83 l-65 4 59 -20
c61 -21 86 -36 86 -51 0 -5 -14 -2 -31 6 -16 9 -53 18 -82 21 -76 8 -84 12
-61 29 17 14 14 15 -33 9 -56 -7 -63 -1 -35 31 42 49 72 59 170 57 52 -1 99 1
105 5 6 4 33 5 60 4 l49 -3 -4 33 c-2 20 2 34 10 36 6 3 12 0 12 -6 0 -6 8
-11 18 -11 13 0 21 11 28 37 19 77 54 37 54 -62 0 -87 17 -109 44 -56 9 16 29
42 46 57 33 31 83 116 94 159 4 14 15 34 26 45 11 11 20 29 20 40 0 11 4 20 8
20 4 0 13 14 19 31 10 25 9 34 -2 45 -7 8 -18 14 -24 14 -6 0 -11 22 -12 53 0
28 -2 62 -5 75 -2 12 1 22 7 22 13 0 5 140 -10 168 -6 11 -8 22 -5 25 17 17 3
101 -25 157 -17 34 -29 65 -26 69 2 5 -15 21 -39 36 -24 15 -50 40 -57 54 -30
59 -207 251 -232 251 -12 0 -103 93 -110 112 -4 11 -12 15 -22 11 -11 -4 -31
10 -62 43 -25 27 -39 40 -32 29 8 -11 19 -24 24 -28 18 -15 -74 4 -114 24 -42
20 -101 26 -101 9 0 -6 -30 -7 -78 -3 -82 6 -168 -7 -208 -32 -12 -8 -39 -17
-60 -21 -21 -4 -42 -11 -45 -16 -4 -6 -16 -5 -30 3 -13 7 -28 12 -34 10 -5 -1
-7 1 -3 5 4 4 0 12 -9 19 -14 10 -14 17 -4 45 9 28 9 37 -4 49 -13 14 -15 13
-15 -7 0 -12 -4 -22 -10 -22 -5 0 -7 -7 -4 -15 5 -11 1 -14 -15 -12 -29 4 -34
12 -16 27 8 7 15 19 15 27 0 11 -6 8 -20 -8 -11 -14 -19 -19 -20 -11 0 8 -10
28 -22 45 l-22 30 35 -6 34 -7 -25 17 c-14 10 -25 24 -26 31 -3 34 -6 35 -24
12 l-21 -25 7 28 c8 33 -1 37 -10 4z m-36 -74 c0 -5 -5 -15 -10 -23 -9 -13
-10 -13 -10 0 -1 18 -60 -48 -60 -67 0 -7 -3 -13 -7 -13 -5 0 -9 20 -11 45 -2
41 0 45 20 45 13 0 30 5 38 10 18 12 40 13 40 3z m79 -45 c5 -15 4 -26 -3 -30
-8 -6 -7 -8 2 -8 6 0 12 -7 12 -16 0 -11 -6 -14 -22 -8 -31 9 -31 9 -24 49 8
40 23 46 35 13z m-107 -40 c-6 -6 -16 -8 -22 -6 -9 3 -7 9 6 22 13 13 19 15
22 6 2 -6 0 -16 -6 -22z m753 -59 c-4 -5 -15 -9 -26 -9 -26 0 -17 15 10 17 12
1 19 -2 16 -8z m-1430 -569 c-3 -5 -1 -10 6 -10 7 0 9 -3 5 -7 -9 -10 -66 -10
-66 -1 0 5 35 21 58 27 2 1 0 -3 -3 -9z m-35 -62 c9 -3 2 -9 -18 -16 -22 -8
-32 -8 -32 0 0 7 -6 6 -15 -2 -13 -11 -14 -10 -9 6 14 37 25 46 43 31 9 -8 23
-16 31 -19z m-82 -183 c-3 -3 -9 2 -12 12 -6 14 -5 15 5 6 7 -7 10 -15 7 -18z
m862 -322 c8 -3 21 -7 28 -9 26 -5 62 -35 77 -63 13 -25 13 -31 0 -41 -11 -9
-26 -9 -67 0 -29 7 -61 17 -71 22 -12 6 -23 5 -32 -2 -8 -7 -20 -8 -27 -4 -7
4 -27 7 -46 6 -18 -2 -59 2 -90 8 -51 10 -65 9 -137 -14 -44 -14 -73 -20 -64
-13 9 7 14 17 12 23 -2 7 19 26 46 42 57 36 157 57 231 50 27 -3 55 -1 62 3
12 8 45 4 78 -8z m853 -122 c19 -19 19 -19 -4 -26 -13 -4 -31 -14 -40 -22 -15
-12 -21 -11 -55 7 -22 12 -46 29 -54 37 -13 13 -13 14 8 8 12 -3 22 -2 22 4 0
27 94 21 123 -8z m-223 -5 c0 -11 -19 -15 -25 -6 -3 5 1 10 9 10 9 0 16 -2 16
-4z m-240 -57 c0 -6 -7 -9 -15 -5 -8 3 -15 0 -15 -6 0 -6 -3 -9 -6 -5 -9 9 5
27 22 27 8 0 14 -5 14 -11z m-532 -105 c12 -4 22 -10 22 -15 0 -10 -41 -12
-65 -3 -13 5 -14 8 -3 15 16 10 17 10 46 3z m5 -71 c-7 -2 -21 -2 -30 0 -10 3
-4 5 12 5 17 0 24 -2 18 -5z m97 -139 c0 -8 -7 -14 -15 -14 -17 0 -18 2 -9 24
7 18 24 12 24 -10z m-842 -11 c5 -18 -10 -16 -34 2 -18 15 -18 15 5 13 14 -2
26 -9 29 -15z"/>
<path d="M1937 4403 c-4 -3 -7 -13 -7 -22 1 -13 3 -13 11 2 11 19 8 33 -4 20z"/>
<path d="M2278 4303 c7 -3 16 -2 19 1 4 3 -2 6 -13 5 -11 0 -14 -3 -6 -6z"/>
<path d="M2737 2516 c-7 -18 -2 -19 93 -16 62 2 78 5 69 14 -2 2 -38 7 -80 11
-65 6 -77 5 -82 -9z"/>
<path d="M2100 2265 c-7 -9 -10 -18 -7 -21 3 -3 10 4 17 15 13 25 8 27 -10 6z"/>
<path d="M2062 2171 c-21 -58 -16 -119 12 -144 14 -12 36 -32 50 -45 14 -12
26 -29 26 -36 0 -23 28 -26 75 -10 30 10 61 13 94 8 45 -6 54 -4 82 20 31 26
35 27 110 20 74 -6 79 -5 103 19 35 35 33 56 -12 100 -41 40 -50 43 -98 25
-34 -12 -36 -11 -158 48 -60 29 -89 30 -130 5 -31 -19 -56 -24 -108 -22 -20 1
-28 7 -30 24 -3 19 -5 18 -16 -12z"/>
<path d="M1350 2141 c0 -22 -3 -47 -7 -57 -5 -13 -3 -15 8 -9 11 6 11 5 2 -5
-7 -8 -8 -22 -2 -42 4 -17 6 -34 4 -39 -3 -4 0 -42 6 -86 7 -43 12 -86 13 -95
0 -10 3 -18 7 -18 8 0 17 -34 24 -95 3 -21 14 -48 25 -60 10 -11 33 -48 50
-83 l31 -63 9 -247 c5 -136 12 -276 14 -312 l5 -65 -50 -50 c-62 -61 -71 -78
-103 -191 -23 -84 -32 -183 -28 -312 l2 -43 85 -39 c130 -60 296 -118 443
-156 150 -38 167 -40 209 -19 17 8 53 17 80 19 27 2 67 11 88 20 20 9 53 16
73 16 22 0 47 9 68 25 18 14 37 25 42 25 5 0 14 27 19 60 5 33 6 60 1 60 -4 0
-8 14 -8 31 0 28 -32 84 -42 74 -2 -2 -20 0 -40 5 -36 10 -58 44 -34 54 6 2 0
5 -14 6 -14 1 -20 4 -13 6 6 3 24 29 39 57 14 29 35 63 45 76 11 13 19 28 19
33 0 6 9 23 21 39 17 24 18 29 5 29 -9 0 -16 4 -16 10 0 5 7 7 15 4 12 -5 12
-2 -1 25 -19 38 -11 111 12 111 20 0 134 119 134 140 0 5 3 10 8 10 4 0 7 16
8 36 1 33 -1 35 -25 29 -78 -19 -81 -19 -81 8 0 14 4 29 10 32 12 7 -10 45
-26 45 -6 0 -31 16 -57 36 -25 20 -50 33 -55 30 -11 -7 -131 17 -158 32 -16 9
-36 15 -84 27 -26 6 -50 30 -50 50 0 18 -7 26 -25 31 -17 4 -25 13 -25 29 0
12 -9 30 -20 40 -11 10 -19 23 -17 29 2 6 -18 21 -45 34 -31 14 -52 31 -58 47
-5 14 -13 25 -17 25 -5 0 -17 13 -28 29 -11 17 -26 32 -35 35 -55 20 -124 82
-112 101 4 5 5 18 4 28 -2 9 2 17 8 17 18 0 -1 52 -32 88 -15 18 -29 37 -29
42 -1 6 -3 15 -4 20 -1 6 -3 13 -4 18 -1 4 -26 23 -56 41 -33 21 -55 42 -55
52 0 10 -11 29 -24 43 -24 26 -56 35 -56 15 0 -6 -7 -4 -15 5 -8 8 -15 22 -15
31 0 9 -9 19 -20 22 -11 3 -20 14 -20 24 0 11 -7 19 -15 19 -11 0 -15 -11 -15
-39z"/>
<path d="M1400 2166 c0 -9 5 -16 10 -16 6 0 10 4 10 9 0 6 -4 13 -10 16 -5 3
-10 -1 -10 -9z"/>
<path d="M2190 1850 c-50 -21 -135 -26 -145 -9 -4 6 -13 8 -19 6 -7 -3 -18 -2
-25 3 -18 10 -99 -9 -121 -29 -10 -9 -26 -23 -37 -31 -26 -20 -43 -53 -43 -84
0 -29 33 -40 100 -31 55 7 74 1 95 -31 15 -23 15 -27 -1 -53 -15 -25 -15 -30
-1 -58 9 -17 33 -49 54 -72 l38 -41 151 -6 c168 -8 233 2 297 44 35 24 48 54
27 67 -5 3 -7 12 -4 19 6 16 -16 22 -121 32 -126 11 -258 58 -300 104 -17 19
-16 20 8 29 17 7 47 7 84 1 32 -6 107 -10 166 -10 117 0 131 -4 190 -56 20
-19 45 -34 54 -34 9 0 37 -14 63 -30 37 -24 52 -28 71 -22 20 8 23 15 20 53
-3 50 -42 134 -67 143 -9 4 -34 -2 -56 -12 l-38 -20 -33 33 c-57 58 -103 78
-187 80 -41 1 -86 6 -100 12 -50 21 -76 21 -120 3z"/>
<path d="M2755 311 c-6 -11 9 -23 19 -14 9 9 7 23 -3 23 -6 0 -12 -4 -16 -9z"/>
</g>
</svg>
