<svg width="4000" height="4000" viewBox="0 0 4000 4000" fill="none" xmlns="http://www.w3.org/2000/svg">
<rect width="4000" height="4000" fill="white"/>
<circle cx="2000" cy="2000" r="2000" fill="black"/>
<g clip-path="url(#clip0_801_4)">
<rect x="1590" y="1431" width="894" height="1107" fill="white"/>
<path fill-rule="evenodd" clip-rule="evenodd" d="M1269.26 1004.24C1126.61 1004.24 1021.06 1129.09 1025.79 1264.49C1030.32 1394.58 1024.43 1563.05 982.017 1700.44C939.453 1838.22 867.52 1925.53 750 1936.74V2063.26C867.52 2074.49 939.453 2161.76 982.012 2299.56C1024.43 2436.95 1030.32 2605.42 1025.78 2735.51C1021.05 2870.89 1126.61 2995.76 1269.28 2995.76H2730.93C2873.58 2995.76 2979.11 2870.91 2974.38 2735.51C2969.85 2605.42 2975.74 2436.95 3018.15 2299.56C3060.72 2161.76 3132.48 2074.46 3250 2063.26V1936.74C3132.48 1925.51 3060.72 1838.24 3018.15 1700.44C2975.74 1563.07 2969.85 1394.58 2974.38 1264.49C2979.11 1129.11 2873.58 1004.24 2730.93 1004.24H1269.24H1269.26ZM2444.92 2230.15C2444.92 2416.59 2305.85 2529.66 2075.06 2529.66H1682.2C1670.96 2529.66 1660.19 2525.2 1652.24 2517.25C1644.29 2509.31 1639.83 2498.53 1639.83 2487.29V1512.71C1639.83 1501.48 1644.29 1490.7 1652.24 1482.75C1660.19 1474.81 1670.96 1470.34 1682.2 1470.34H2072.83C2265.26 1470.34 2391.56 1574.58 2391.56 1734.62C2391.56 1846.95 2306.6 1947.51 2198.36 1965.13V1970.99C2345.7 1987.15 2444.92 2089.2 2444.92 2230.15ZM2032.23 1604.66H1808.22V1921.07H1996.89C2142.74 1921.07 2223.16 1862.34 2223.16 1757.36C2223.14 1658.98 2154 1604.66 2032.23 1604.66ZM1808.22 2046.61V2395.3H2040.47C2192.32 2395.3 2272.76 2334.37 2272.76 2219.85C2272.76 2105.34 2190.07 2046.59 2030.7 2046.59H1808.22V2046.61Z" fill="#7952B3"/>
</g>
<defs>
<clipPath id="clip0_801_4">
<rect width="2500" height="1992" fill="white" transform="translate(750 1004)"/>
</clipPath>
</defs>
</svg>
