<svg width="4000" height="4000" viewBox="0 0 4000 4000" fill="none" xmlns="http://www.w3.org/2000/svg">
<rect width="4000" height="4000" fill="white"/>
<circle cx="2000" cy="2000" r="2000" fill="black"/>
<g clip-path="url(#clip0_801_4)">
<path d="M1582.83 3250C1812.83 3250 1999.5 3063.33 1999.5 2833.33V2416.67H1582.83C1352.83 2416.67 1166.17 2603.33 1166.17 2833.33C1166.17 3063.33 1352.83 3250 1582.83 3250Z" fill="#0ACF83"/>
<path d="M1166.17 2000C1166.17 1770 1352.83 1583.33 1582.83 1583.33H1999.5V2416.67H1582.83C1352.83 2416.67 1166.17 2230 1166.17 2000Z" fill="#A259FF"/>
<path d="M1166.17 1166.67C1166.17 936.667 1352.83 750 1582.83 750H1999.5V1583.33H1582.83C1352.83 1583.33 1166.17 1396.67 1166.17 1166.67Z" fill="#F24E1E"/>
<path d="M1999.5 750H2416.17C2646.17 750 2832.83 936.667 2832.83 1166.67C2832.83 1396.67 2646.17 1583.33 2416.17 1583.33H1999.5V750Z" fill="#FF7262"/>
<path d="M2832.83 2000C2832.83 2230 2646.17 2416.67 2416.17 2416.67C2186.17 2416.67 1999.5 2230 1999.5 2000C1999.5 1770 2186.17 1583.33 2416.17 1583.33C2646.17 1583.33 2832.83 1770 2832.83 2000Z" fill="#1ABCFE"/>
</g>
<defs>
<clipPath id="clip0_801_4">
<rect width="1667" height="2500" fill="white" transform="translate(1166 750)"/>
</clipPath>
</defs>
</svg>
