<svg width="4000" height="4000" viewBox="0 0 4000 4000" fill="none" xmlns="http://www.w3.org/2000/svg">
<rect width="4000" height="4000" fill="white"/>
<circle cx="2000" cy="2000" r="2000" fill="black"/>
<g clip-path="url(#clip0_801_4)">
<path d="M917.504 1351.97C696.41 1669.94 723.754 2083.53 892.817 2422.28C896.723 2430.41 901.02 2438.38 905.16 2446.34L912.973 2461.58C914.535 2464.55 916.254 2467.44 917.895 2470.33C920.785 2475.8 923.754 2480.8 926.723 2486.11L942.895 2513.77L952.113 2528.92L970.863 2558.22L978.832 2570.56C987.66 2583.69 996.645 2596.81 1005.94 2609.63L1011.25 2616.81C1019.31 2627.88 1027.54 2638.82 1035.94 2649.63L1045.32 2661.5L1068.13 2689.63L1076.88 2700.09C1087.27 2712.36 1097.97 2724.55 1108.68 2736.42C1109.77 2737.59 1110.24 2737.99 1110.55 2738.45C1121.16 2749.97 1131.95 2761.32 1142.89 2772.52L1153.29 2782.99L1179.07 2808.3L1189.61 2818.45C1201.22 2829.4 1213.01 2840.13 1225 2850.64L1263.75 2883.45L1277.04 2894.08L1303.83 2915.02L1318.13 2925.95L1348.21 2947.52L1362.27 2957.44C1371.88 2964.08 1381.64 2970.41 1391.49 2976.74L1404.14 2985.17C1419.22 2994.75 1434.46 3004.07 1449.85 3013.14L1462.5 3020.95L1496.88 3040.17C1503.13 3043.53 1509.54 3046.74 1515.86 3049.94L1540.39 3062.67L1546.1 3065.41L1556.25 3070.25L1595.16 3088.22L1603.36 3091.89C1618.38 3098.43 1633.51 3104.71 1648.75 3110.72L1659.69 3115.09L1702.5 3130.95L1707.97 3132.83C1723.78 3138.27 1739.67 3143.48 1755.63 3148.45L1767.19 3151.89C1782.82 3156.81 1799.69 3162.83 1816.41 3165.8C2886.25 3360.88 3196.88 2522.83 3196.88 2522.83C2935.94 2862.83 2472.66 2952.52 2032.82 2852.67C2016.18 2848.92 2000 2843.77 1983.83 2838.92L1971.64 2835.25C1955.83 2830.39 1940.1 2825.26 1924.46 2819.86L1917.97 2817.52C1904.05 2812.58 1890.19 2807.44 1876.41 2802.13L1864.69 2797.44C1849.59 2791.5 1834.61 2785.25 1819.77 2778.69L1810.79 2774.78L1772.89 2757.13L1761.96 2751.89C1752.11 2747.2 1742.43 2741.97 1732.66 2736.27L1713.13 2726.11C1701.25 2719.86 1689.69 2713.14 1677.97 2706.42L1666.1 2699.78C1650.72 2690.7 1635.48 2681.38 1620.39 2671.81C1616.25 2669.16 1612.19 2666.34 1608.05 2663.61L1575.55 2641.97C1571.96 2639.63 1567.74 2636.97 1565.08 2634.63L1534.3 2612.36L1520.63 2602.05L1492.89 2580.33L1480.55 2570.41L1446.02 2541.27C1444.76 2540.17 1443.46 2539.13 1442.11 2538.14L1405.79 2505.09L1395.63 2495.25L1369.69 2469.47L1359.54 2459.31C1348.6 2448.14 1337.97 2436.89 1328.29 2425.41C1327.74 2424.86 1327.19 2424.31 1326.72 2423.69C1315.66 2411.55 1304.83 2399.2 1294.22 2386.66L1286.41 2376.5L1262.97 2347.59L1255.16 2336.89L1228.13 2300.95C982.973 1968.77 895.317 1509.55 1090.16 1132.99L917.504 1351.97ZM1604.22 1084.16C1444.22 1314.39 1452.89 1623.22 1577.66 1866.03C1598.57 1906.96 1622.21 1946.42 1648.44 1984.16C1672.43 2018.53 1698.99 2059.39 1730.79 2086.97C1742.35 2099.7 1754.38 2111.97 1766.72 2124.24L1776.1 2133.61C1788.04 2145.25 1800.26 2156.61 1812.74 2167.67C1813.29 2168.06 1813.68 2168.61 1814.3 2169C1828.52 2181.5 1842.89 2192.44 1857.5 2204.78L1867.19 2212.36C1881.85 2223.66 1896.8 2234.58 1912.04 2245.09L1913.36 2246.03C1920.08 2250.72 1926.96 2255.02 1933.83 2259.55C1937.11 2261.66 1940.24 2263.92 1943.52 2265.95C1954.44 2272.96 1965.51 2279.73 1976.72 2286.27L1981.41 2289L2010.79 2304.63C2014.22 2306.58 2018.6 2308.22 2021.25 2310.09L2041.8 2320.72C2042.82 2321.27 2043.91 2321.66 2044.93 2322.13C2059.02 2329.14 2073.29 2335.79 2087.74 2342.05L2097.11 2345.95C2108.75 2350.89 2120.47 2355.63 2132.27 2360.17L2147.27 2365.64C2157.97 2369.53 2168.72 2373.25 2179.54 2376.81L2194.14 2381.5C2209.54 2386.19 2225.39 2392.44 2240.79 2395.02C3066.8 2531.89 3257.5 1895.02 3257.5 1895.02C3085.63 2142.67 2752.82 2260.64 2397.5 2168.45C2381.8 2164.32 2366.2 2159.82 2350.71 2154.94C2346.02 2153.53 2341.33 2151.97 2336.64 2150.41L2303.83 2139.16L2288.21 2133.69C2276.41 2129.14 2264.69 2124.4 2253.05 2119.47L2243.52 2115.56C2228.99 2109.25 2214.61 2102.58 2200.39 2095.56L2178.75 2084.63L2166.25 2078.22C2157.06 2073.23 2147.95 2068.1 2138.91 2062.83L2132.35 2059.16C2121.17 2052.61 2110.13 2045.84 2099.22 2038.84C2095.86 2036.74 2092.58 2034.39 2089.22 2032.2L2067.74 2017.99C2052.61 2007.5 2037.76 1996.61 2023.21 1985.33L2013.05 1977.52C1856.8 1854.7 1734.3 1686.89 1675.71 1496.74C1614.3 1299.47 1627.5 1077.99 1733.91 898.298L1604.22 1084.16ZM2181.72 884.001C2087.5 1023.45 2078.13 1195.17 2143.6 1348.45C2212.58 1511.19 2353.99 1638.77 2519.07 1700.02L2539.54 1707.83L2548.6 1710.64L2578.05 1718.45C3034.14 1806.58 3157.74 1484.39 3190.79 1436.97C3082.43 1592.99 2900.32 1630.41 2676.88 1576.19C2659.22 1571.89 2639.85 1565.49 2622.82 1559.47C2600.96 1551.72 2579.52 1542.83 2558.6 1532.83C2518.89 1513.73 2481.17 1490.73 2446.02 1464.16C2246.1 1312.52 2121.88 1022.36 2252.35 786.735" fill="#0868AC"/>
</g>
<defs>
<clipPath id="clip0_801_4">
<rect width="2500" height="2500" fill="white" transform="translate(750 750)"/>
</clipPath>
</defs>
</svg>
