<svg width="4000" height="4000" viewBox="0 0 4000 4000" fill="none" xmlns="http://www.w3.org/2000/svg">
<rect width="4000" height="4000" fill="white"/>
<circle cx="2000" cy="2000" r="2000" fill="black"/>
<path d="M3307.15 1320.12C3308.07 1323.44 3308.55 1326.85 3308.55 1330.28V1863.64C3308.55 1870.48 3306.69 1877.21 3303.14 1883.13C3299.59 1889.05 3294.49 1893.97 3288.35 1897.37L2825.52 2155.1V2665.95C2825.52 2679.85 2817.88 2692.69 2805.41 2699.69L1839.29 3237.61C1837.07 3238.82 1834.66 3239.6 1832.25 3240.43C1831.35 3240.72 1830.49 3241.26 1829.54 3241.5C1822.78 3243.22 1815.68 3243.22 1808.93 3241.5C1807.82 3241.21 1806.82 3240.62 1805.76 3240.23C1803.55 3239.46 1801.24 3238.78 1799.13 3237.61L833.204 2699.69C827.068 2696.28 821.969 2691.36 818.422 2685.44C814.875 2679.52 813.005 2672.8 813 2665.95V1065.89C813 1062.39 813.503 1058.99 814.407 1055.68C814.709 1054.57 815.412 1053.54 815.814 1052.43C816.568 1050.39 817.272 1048.29 818.378 1046.4C819.132 1045.14 820.237 1044.11 821.142 1042.95C822.298 1041.39 823.353 1039.79 824.71 1038.43C825.866 1037.31 827.374 1036.48 828.681 1035.51C830.138 1034.34 831.445 1033.08 833.104 1032.16H833.154L1316.14 763.195C1322.26 759.791 1329.19 758 1336.25 758C1343.3 758 1350.23 759.791 1356.35 763.195L1839.34 1032.16H1839.44C1841.05 1033.13 1842.4 1034.34 1843.86 1035.46C1845.17 1036.43 1846.62 1037.31 1847.78 1038.38C1849.19 1039.79 1850.19 1041.39 1851.4 1042.95C1852.25 1044.11 1853.41 1045.14 1854.11 1046.4C1855.27 1048.34 1855.92 1050.39 1856.73 1052.43C1857.13 1053.54 1857.83 1054.57 1858.13 1055.73C1859.06 1059.04 1859.53 1062.46 1859.54 1065.89V2065.27L2262.01 1841.13V1330.24C2262.01 1326.83 2262.52 1323.38 2263.42 1320.12C2263.77 1318.96 2264.43 1317.94 2264.83 1316.82C2265.63 1314.78 2266.34 1312.69 2267.44 1310.79C2268.2 1309.53 2269.3 1308.51 2270.16 1307.34C2271.36 1305.78 2272.37 1304.18 2273.77 1302.82C2274.93 1301.7 2276.39 1300.87 2277.69 1299.9C2279.2 1298.74 2280.51 1297.47 2282.12 1296.55H2282.17L2765.21 1027.59C2771.32 1024.18 2778.25 1022.38 2785.31 1022.38C2792.37 1022.38 2799.3 1024.18 2805.41 1027.59L3288.4 1296.55C3290.11 1297.52 3291.42 1298.74 3292.92 1299.85C3294.18 1300.83 3295.64 1301.7 3296.79 1302.77C3298.2 1304.18 3299.21 1305.78 3300.41 1307.34C3301.32 1308.51 3302.42 1309.53 3303.13 1310.79C3304.28 1312.69 3304.94 1314.78 3305.74 1316.82C3306.19 1317.94 3306.85 1318.96 3307.15 1320.12V1320.12ZM3228.04 1841.13V1397.61L3059.02 1491.72L2825.52 1621.75V2065.27L3228.09 1841.13H3228.04ZM2745.05 2643.44V2199.63L2515.37 2326.5L1859.49 2688.56V3136.55L2745.05 2643.44ZM893.515 1133.22V2643.44L1778.98 3136.5V2688.6L1316.39 2435.39L1316.24 2435.3L1316.04 2435.2C1314.48 2434.32 1313.18 2433.06 1311.72 2431.99C1310.46 2431.02 1309 2430.24 1307.9 2429.17L1307.8 2429.02C1306.49 2427.81 1305.59 2426.3 1304.48 2424.94C1303.48 2423.63 1302.27 2422.51 1301.47 2421.15L1301.42 2421C1300.51 2419.55 1299.96 2417.8 1299.3 2416.14C1298.65 2414.68 1297.8 2413.32 1297.4 2411.77V2411.72C1296.89 2409.87 1296.79 2407.93 1296.59 2406.03C1296.39 2404.57 1295.99 2403.11 1295.99 2401.66V1357.36L1062.54 1227.28L893.515 1133.27V1133.22ZM1336.3 841.847L933.873 1065.89L1336.19 1289.94L1738.57 1065.84L1336.19 841.847H1336.3ZM1545.57 2240.08L1779.03 2110.09V1133.22L1610.01 1227.33L1376.5 1357.36V2334.23L1545.57 2240.08ZM2785.31 1106.24L2382.94 1330.28L2785.31 1554.33L3187.63 1330.24L2785.31 1106.24ZM2745.05 1621.75L2511.55 1491.72L2342.53 1397.61V1841.13L2575.98 1971.11L2745.05 2065.27V1621.75ZM1819.18 2621.23L2409.37 2295.35L2704.39 2132.5L2302.32 1908.6L1839.39 2166.38L1417.46 2401.32L1819.18 2621.23Z" fill="#FF2D20"/>
</svg>
