<svg width="4000" height="4000" viewBox="0 0 4000 4000" fill="none" xmlns="http://www.w3.org/2000/svg">
<rect width="4000" height="4000" fill="white"/>
<circle cx="2000" cy="2000" r="2000" fill="black"/>
<path d="M3250 2000.59C3250 1834.98 3042.6 1678.03 2724.62 1580.7C2798 1256.61 2765.39 998.759 2621.69 916.207C2588.57 896.843 2549.84 887.671 2507.54 887.671V1001.31C2530.98 1001.31 2549.84 1005.89 2565.63 1014.56C2634.94 1054.3 2665 1205.65 2641.56 1400.31C2635.96 1448.21 2626.78 1498.66 2615.57 1550.12C2515.7 1525.67 2406.64 1506.81 2291.99 1494.58C2223.2 1400.31 2151.85 1314.7 2080 1239.79C2246.13 1085.39 2402.06 1000.8 2508.05 1000.8V887.161C2367.92 887.161 2184.47 987.039 1998.98 1160.3C1813.49 988.058 1630.04 889.199 1489.91 889.199V1002.84C1595.39 1002.84 1751.83 1086.92 1917.96 1240.3C1846.62 1315.21 1775.28 1400.31 1707.5 1494.58C1592.34 1506.81 1483.29 1525.66 1383.41 1550.63C1371.69 1499.68 1363.02 1450.25 1356.91 1402.86C1332.96 1208.2 1362.52 1056.85 1431.31 1016.59C1446.6 1007.42 1466.47 1003.35 1489.91 1003.35V889.709C1447.11 889.709 1408.38 898.881 1374.75 918.246C1231.55 1000.8 1199.45 1258.14 1273.34 1581.21C956.38 1679.05 750 1835.49 750 2000.59C750 2166.21 957.399 2323.16 1275.38 2420.49C1202 2744.58 1234.61 3002.43 1378.31 3084.98C1411.44 3104.34 1450.16 3113.52 1492.97 3113.52C1633.1 3113.52 1816.55 3013.64 2002.04 2840.38C2187.53 3012.62 2370.97 3111.48 2511.11 3111.48C2553.91 3111.48 2592.64 3102.31 2626.27 3082.94C2769.47 3000.39 2801.57 2743.05 2727.68 2419.98C3043.62 2322.65 3250 2165.7 3250 2000.59ZM2586.53 1660.7C2567.67 1726.44 2544.23 1794.21 2517.73 1861.99C2496.84 1821.22 2474.93 1780.46 2450.98 1739.69C2427.54 1698.92 2402.57 1659.17 2377.6 1620.45C2449.96 1631.15 2519.77 1644.4 2586.53 1660.7ZM2353.14 2203.41C2313.39 2272.2 2272.63 2337.43 2230.33 2398.07C2154.4 2404.69 2077.46 2408.26 2000 2408.26C1923.05 2408.26 1846.11 2404.69 1770.69 2398.58C1728.39 2337.94 1687.12 2273.22 1647.37 2204.94C1608.64 2138.18 1573.48 2070.41 1541.38 2002.12C1572.97 1933.84 1608.64 1865.55 1646.86 1798.8C1686.61 1730.01 1727.37 1664.78 1769.67 1604.14C1845.6 1597.52 1922.54 1593.95 2000 1593.95C2076.95 1593.95 2153.89 1597.52 2229.31 1603.63C2271.61 1664.27 2312.88 1728.99 2352.63 1797.27C2391.36 1864.03 2426.52 1931.8 2458.62 2000.08C2426.52 2068.37 2391.36 2136.65 2353.14 2203.41ZM2517.73 2137.16C2545.25 2205.44 2568.69 2273.73 2588.06 2339.97C2521.3 2356.28 2450.98 2370.04 2378.11 2380.74C2403.08 2341.5 2428.05 2301.25 2451.49 2259.97C2474.93 2219.2 2496.84 2177.93 2517.73 2137.16ZM2001.02 2680.88C1953.63 2631.96 1906.24 2577.44 1859.36 2517.82C1905.22 2519.86 1952.1 2521.38 1999.49 2521.38C2047.39 2521.38 2094.78 2520.37 2141.15 2517.82C2095.29 2577.44 2047.9 2631.96 2001.02 2680.88ZM1621.89 2380.74C1549.53 2370.04 1479.72 2356.79 1412.96 2340.48C1431.82 2274.75 1455.26 2206.97 1481.76 2139.2C1502.65 2179.97 1524.56 2220.73 1548.51 2261.5C1572.46 2302.27 1596.92 2342.01 1621.89 2380.74ZM1998.47 1320.3C2045.86 1369.22 2093.25 1423.75 2140.13 1483.37C2094.27 1481.33 2047.39 1479.8 2000 1479.8C1952.1 1479.8 1904.71 1480.82 1858.34 1483.37C1904.2 1423.75 1951.59 1369.22 1998.47 1320.3ZM1621.38 1620.45C1596.41 1659.68 1571.44 1699.94 1548 1741.22C1524.56 1781.98 1502.65 1822.75 1481.76 1863.52C1454.24 1795.23 1430.8 1726.95 1411.44 1660.7C1478.19 1644.91 1548.51 1631.15 1621.38 1620.45ZM1160.21 2258.44C979.821 2181.49 863.127 2080.6 863.127 2000.59C863.127 1920.59 979.821 1819.18 1160.21 1742.75C1204.04 1723.89 1251.94 1707.08 1301.37 1691.28C1330.41 1791.16 1368.63 1895.11 1416.02 2001.61C1369.14 2107.61 1331.43 2211.05 1302.89 2310.42C1252.45 2294.62 1204.55 2277.3 1160.21 2258.44ZM1434.37 2986.63C1365.06 2946.88 1335 2795.54 1358.44 2600.88C1364.04 2552.98 1373.22 2502.53 1384.43 2451.06C1484.31 2475.52 1593.36 2494.38 1708.01 2506.61C1776.8 2600.88 1848.15 2686.49 1920 2761.4C1753.87 2915.8 1597.94 3000.39 1491.95 3000.39C1469.02 2999.88 1449.65 2995.29 1434.37 2986.63ZM2643.09 2598.33C2667.04 2792.99 2637.48 2944.34 2568.69 2984.59C2553.4 2993.77 2533.53 2997.84 2510.09 2997.84C2404.61 2997.84 2248.17 2913.76 2082.04 2760.38C2153.38 2685.47 2224.72 2600.37 2292.5 2506.1C2407.66 2493.87 2516.71 2475.01 2616.59 2450.04C2628.31 2501.51 2637.48 2550.94 2643.09 2598.33ZM2839.28 2258.44C2795.45 2277.3 2747.55 2294.11 2698.12 2309.91C2669.08 2210.03 2630.86 2106.08 2583.47 1999.57C2630.35 1893.58 2668.06 1790.14 2696.6 1690.77C2747.04 1706.57 2794.94 1723.89 2839.79 1742.75C3020.18 1819.69 3136.87 1920.59 3136.87 2000.59C3136.36 2080.6 3019.67 2182 2839.28 2258.44Z" fill="#61DAFB"/>
<path d="M1999.49 2233.47C2128.11 2233.47 2232.37 2129.21 2232.37 2000.59C2232.37 1871.98 2128.11 1767.72 1999.49 1767.72C1870.88 1767.72 1766.61 1871.98 1766.61 2000.59C1766.61 2129.21 1870.88 2233.47 1999.49 2233.47Z" fill="#61DAFB"/>
</svg>
