<svg width="4000" height="4000" viewBox="0 0 4000 4000" fill="none" xmlns="http://www.w3.org/2000/svg">
<rect width="4000" height="4000" fill="white"/>
<circle cx="2000" cy="2000" r="2000" fill="black"/>
<path d="M2000 1250C1666.67 1250 1458.33 1416.67 1375 1750C1500 1583.33 1645.83 1520.83 1812.5 1562.5C1907.59 1586.27 1975.56 1655.26 2050.79 1731.62C2173.35 1856.03 2315.19 2000 2625 2000C2958.33 2000 3166.67 1833.33 3250 1500C3125 1666.67 2979.17 1729.17 2812.5 1687.5C2717.41 1663.73 2649.44 1594.74 2574.21 1518.38C2451.65 1393.97 2309.81 1250 2000 1250ZM1375 2000C1041.67 2000 833.33 2166.67 750 2500C875 2333.33 1020.83 2270.83 1187.5 2312.5C1282.59 2336.27 1350.56 2405.26 1425.79 2481.62C1548.35 2606.03 1690.19 2750 2000 2750C2333.33 2750 2541.67 2583.33 2625 2250C2500 2416.67 2354.17 2479.17 2187.5 2437.5C2092.41 2413.73 2024.44 2344.74 1949.21 2268.38C1826.65 2143.97 1684.81 2000 1375 2000Z" fill="url(#paint0_linear_801_4)"/>
<defs>
<linearGradient id="paint0_linear_801_4" x1="680.55" y1="1730" x2="2839.71" y2="2974.93" gradientUnits="userSpaceOnUse">
<stop stop-color="#2298BD"/>
<stop offset="1" stop-color="#0ED7B5"/>
</linearGradient>
</defs>
</svg>
