<svg width="4000" height="4000" viewBox="0 0 4000 4000" fill="none" xmlns="http://www.w3.org/2000/svg">
<rect width="4000" height="4000" fill="white"/>
<circle cx="2000" cy="2000" r="2000" fill="black"/>
<path d="M670.447 1649.6C670.447 1649.6 611.267 1606.94 682.283 1549.98L847.742 1402.02C847.742 1402.02 895.086 1352.21 945.143 1395.61L2472 2551.6V3105.93C2472 3105.93 2471.26 3192.97 2359.55 3183.35L670.447 1649.6Z" fill="#2489CA"/>
<path d="M1064 2006.9L670.447 2364.69C670.447 2364.69 630.007 2394.78 670.447 2448.53L853.167 2614.73C853.167 2614.73 896.566 2661.33 960.678 2608.32L1377.9 2291.95L1064 2006.9Z" fill="#1070B3"/>
<path d="M1754.93 2009.86L2476.68 1458.74L2472 907.376C2472 907.376 2441.17 787.042 2338.35 849.675L1377.9 1723.82L1754.93 2009.86Z" fill="#0877B9"/>
<path d="M2359.55 3184.09C2401.47 3227 2452.27 3212.95 2452.27 3212.95L3014.73 2935.78C3086.73 2886.71 3076.62 2825.81 3076.62 2825.81V1170.73C3076.62 1097.99 3002.15 1072.83 3002.15 1072.83L2514.66 837.839C2408.13 772.001 2338.35 849.675 2338.35 849.675C2338.35 849.675 2428.1 785.07 2472 907.376V3095.82C2472 3110.86 2468.79 3125.65 2462.38 3138.97C2449.56 3164.86 2421.69 3189.03 2354.87 3178.92L2359.55 3184.09Z" fill="#3C99D4"/>
</svg>
